<svg width="185" height="60" viewBox="0 0 185 60" fill="none" xmlns="http://www.w3.org/2000/svg">
    <path d="M103.56 46.4926H0.00390625V58.5269H103.56V46.4926Z" fill="black"/>
    <path fill-rule="evenodd" clip-rule="evenodd" d="M51.7852 38.0595C24.2212 38.0595 1.87583 29.9504 1.87583 19.9529C1.87583 9.95337 24.2212 1.83724 51.7852 1.83824C79.3443 1.83824 101.688 9.95437 101.688 19.9529C101.688 29.9504 79.3443 38.0595 51.7852 38.0595ZM51.7852 0C23.1871 0 0 8.92443 0 19.9529C0 30.9653 23.1871 39.9057 51.7852 39.9057C80.3744 39.9057 103.563 30.9642 103.563 19.9529C103.563 8.92443 80.3744 0 51.7852 0Z" fill="#EB0606"/>
    <path fill-rule="evenodd" clip-rule="evenodd" d="M16.1646 9.28441L19.4286 8.07597L22.6736 7.08715L25.8658 24.0395L27.6868 14.7771L29.5248 5.52269L32.5923 5.01123L35.6618 4.58502V35.3156L31.236 34.6888V17.0656L28.3869 34.1403L23.6789 33.0812L20.5904 17.0656V24.6181V32.1947L18.3755 31.4496L16.1626 30.6102C16.1626 26.8625 16.1626 24.2962 16.1626 20.5415C16.1646 16.7908 16.1646 13.0411 16.1646 9.28441ZM39.2998 4.19992L41.5107 4.00637L43.7097 3.86898V19.9528V36.0226L41.5107 35.8872L39.2998 35.7097V17.9982V4.19992ZM49.1965 19.6891L47.7495 11.7224L46.3065 3.74462L48.6062 3.69047L50.9028 3.67041L52.5034 16.1329L53.2075 9.92724L53.9046 3.71554L56.2262 3.77972L58.5478 3.89304L55.8472 19.6881L57.5445 27.8243L59.2289 35.9544L56.8853 36.0828L54.5388 36.158L52.5014 23.5792L51.7166 29.9072L50.9008 36.2212L48.6042 36.2051L46.3035 36.141L49.1965 19.6891ZM61.5535 8.35276C61.5535 8.32668 61.5535 8.30863 61.5535 8.2976C61.5535 8.10906 61.5654 7.85634 61.5944 7.54646C61.6253 7.23657 61.6781 6.90162 61.8148 6.54159C62.0132 6.03816 62.3922 5.56481 62.9137 5.14261C63.4512 4.7194 64.3278 4.35235 65.4946 4.51482L68.4953 4.91997C69.6631 5.0714 70.5237 5.13157 71.0613 5.54174C71.6187 5.95091 71.9947 6.41523 72.1772 6.92067C72.3058 7.26465 72.3647 7.58657 72.3956 7.90949C72.4235 8.23442 72.4444 8.48714 72.4444 8.67267C72.4444 8.68972 72.4444 8.70877 72.4444 8.70877C72.4444 8.72983 72.4444 8.73986 72.4444 8.7559V31.3994C72.4444 31.4185 72.4444 31.4386 72.4444 31.4386C72.4444 31.4496 72.4444 31.4646 72.4444 31.4877C72.4444 31.6552 72.4444 31.8317 72.4444 32.0202C72.4444 32.2087 72.3896 32.4073 72.3567 32.6129C72.2689 33.1986 71.9947 33.7341 71.4981 34.2225C70.9905 34.7099 69.9663 34.7751 68.4953 34.9786L65.4946 35.4018C65.4318 35.3788 65.349 35.3637 65.2952 35.3637C65.2283 35.3637 65.1825 35.3637 65.1246 35.3637C64.2251 35.3467 63.4123 35.1521 62.6664 34.7761C61.9264 34.399 61.5545 33.4062 61.5545 31.8056V8.35276H61.5535ZM65.9803 31.8658C65.9803 31.8798 65.9803 31.8989 65.9803 31.9089C65.9803 31.9219 65.9723 31.9289 65.9803 31.95C66.0012 32.1365 66.0989 32.304 66.2834 32.4595C66.442 32.5989 66.6913 32.6831 67.0144 32.6831C67.3106 32.6831 67.5589 32.6089 67.7424 32.4755C67.9229 32.3331 68.0137 32.1275 68.0137 31.8668V7.99373C68.0137 7.76207 67.9329 7.57955 67.7713 7.45319C67.6217 7.32683 67.4382 7.23557 67.2458 7.20348C67.2169 7.18142 67.174 7.17239 67.1371 7.17239C67.1141 7.17239 67.0653 7.17239 67.0144 7.17239C66.7491 7.17239 66.5158 7.25061 66.3014 7.39202C66.1129 7.54646 66.0002 7.71193 65.9803 7.90347C65.9723 7.92453 65.9803 7.94058 65.9803 7.94058C65.9803 7.95362 65.9803 7.97267 65.9803 7.99273V31.8658ZM75.8122 6.27283L78.0291 6.82239L80.237 7.41909L82.9774 18.9279V13.6188V8.31665L85.1903 9.11794L87.4032 10.0777V19.9548V29.8219L85.1903 30.7686L82.9774 31.587L80.237 22.0568V27.2747V32.4815L78.0291 33.0822L75.8122 33.6168V19.0372V6.27283Z" fill="#EB0606"/>
    <path d="M9.79602 55.1942H8.47366L6.48315 52.3953V55.1942H5.31836V49.6715H6.48315V52.3461L8.45172 49.6715H9.6913L7.68882 52.3241L9.79602 55.1942Z" fill="white"/>
    <path d="M14.2139 53.0752C14.2139 53.7631 14.0324 54.3007 13.6724 54.6878C13.3124 55.0749 12.8097 55.2694 12.1665 55.2694C11.7636 55.2694 11.4066 55.1812 11.0995 55.0027C10.7913 54.8252 10.555 54.5704 10.3904 54.2375C10.2249 53.9056 10.1421 53.5174 10.1421 53.0742C10.1421 52.3842 10.3206 51.8477 10.6786 51.4656C11.0366 51.0835 11.5402 50.892 12.1894 50.892C12.5913 50.892 12.9484 50.9802 13.2555 51.1567C13.5627 51.3332 13.801 51.5859 13.9655 51.9159C14.1311 52.2458 14.2139 52.6319 14.2139 53.0752ZM11.3099 53.0752C11.3099 53.4934 11.3777 53.8093 11.5143 54.0229C11.6509 54.2375 11.8733 54.3438 12.1815 54.3438C12.4866 54.3438 12.706 54.2385 12.8407 54.0249C12.9753 53.8123 13.0411 53.4964 13.0411 53.0752C13.0411 52.658 12.9743 52.3441 12.8387 52.1345C12.703 51.9249 12.4826 51.8206 12.1745 51.8206C11.8683 51.8206 11.6489 51.9249 11.5123 52.1325C11.3777 52.3401 11.3099 52.655 11.3099 53.0752Z" fill="white"/>
    <path d="M18.0592 50.9712V51.8357H16.305V55.1942H15.1602V50.9712H18.0592Z" fill="white"/>
    <path d="M23.2278 56.7095H22.1986V55.1942H19.3734V56.7095H18.3452V54.3518H18.6982C18.9386 53.9768 19.14 53.5024 19.3036 52.9318C19.4651 52.3601 19.5798 51.7063 19.6446 50.9712H22.6125V54.3518H23.2288V56.7095H23.2278ZM21.4656 54.3518V51.8357H20.606C20.5432 52.305 20.4584 52.7483 20.3487 53.1695C20.24 53.5897 20.0874 53.9848 19.8949 54.3518H21.4656Z" fill="white"/>
    <path d="M26.6129 55.1943L26.3915 54.6207H26.3606C26.1681 54.8644 25.9696 55.0338 25.7652 55.1291C25.5618 55.2234 25.2945 55.2705 24.9674 55.2705C24.5645 55.2705 24.2464 55.1552 24.015 54.9225C23.7837 54.6919 23.667 54.3609 23.667 53.9337C23.667 53.4854 23.8226 53.1555 24.1357 52.9419C24.4478 52.7293 24.9165 52.6119 25.5458 52.5889L26.2738 52.5668V52.3813C26.2738 51.9531 26.0554 51.7384 25.6196 51.7384C25.2845 51.7384 24.8906 51.8407 24.4369 52.0443L24.0569 51.2671C24.5396 51.0124 25.0761 50.885 25.6645 50.885C26.2279 50.885 26.6597 51.0084 26.9609 51.2551C27.2611 51.5018 27.4107 51.8768 27.4107 52.3813V55.1953H26.6129V55.1943ZM26.2748 53.2377L25.831 53.2538C25.4979 53.2638 25.2506 53.324 25.0881 53.4353C24.9255 53.5466 24.8437 53.7141 24.8437 53.9417C24.8437 54.2656 25.0292 54.4281 25.4002 54.4281C25.6665 54.4281 25.8779 54.3519 26.0375 54.1985C26.197 54.045 26.2758 53.8414 26.2758 53.5867V53.2377H26.2748Z" fill="white"/>
    <path d="M34.4671 52.0783C34.4671 52.306 34.3953 52.4985 34.2547 52.658C34.1121 52.8174 33.9037 52.9207 33.6294 52.9659V52.9959C33.9266 53.031 34.163 53.1343 34.3365 53.3048C34.511 53.4743 34.5978 53.6839 34.5978 53.9336C34.5978 54.3438 34.4382 54.6567 34.1171 54.8723C33.798 55.0879 33.3392 55.1952 32.7429 55.1952H30.5908V50.9722H32.7429C33.3183 50.9722 33.7511 51.0664 34.0373 51.253C34.3225 51.4405 34.4671 51.7153 34.4671 52.0783ZM33.3053 52.1696C33.3053 51.9118 33.1029 51.7835 32.697 51.7835H31.7357V52.6189H32.5654C32.8077 52.6189 32.9922 52.5838 33.1169 52.5136C33.2435 52.4424 33.3053 52.328 33.3053 52.1696ZM33.411 53.8724C33.411 53.706 33.3472 53.5866 33.2196 53.5124C33.0919 53.4382 32.9005 53.4011 32.6452 53.4011H31.7367V54.3979H32.6681C32.9114 54.3979 33.0959 54.3518 33.2226 54.2595C33.3462 54.1683 33.411 54.0389 33.411 53.8724Z" fill="white"/>
    <path d="M38.1729 55.1943L37.9505 54.6207H37.9216C37.7292 54.8644 37.5297 55.0338 37.3253 55.1291C37.1208 55.2234 36.8556 55.2705 36.5265 55.2705C36.1236 55.2705 35.8055 55.1552 35.5751 54.9225C35.3437 54.6919 35.2271 54.3609 35.2271 53.9337C35.2271 53.4854 35.3826 53.1555 35.6948 52.9419C36.0069 52.7293 36.4766 52.6119 37.1049 52.5889L37.8339 52.5668V52.3813C37.8339 51.9531 37.6155 51.7384 37.1807 51.7384C36.8446 51.7384 36.4507 51.8407 35.9969 52.0443L35.618 51.2671C36.1006 51.0124 36.6362 50.885 37.2245 50.885C37.787 50.885 38.2198 51.0084 38.52 51.2551C38.8211 51.5018 38.9717 51.8768 38.9717 52.3813V55.1953H38.1729V55.1943ZM37.8349 53.2377L37.3921 53.2538C37.059 53.2638 36.8107 53.324 36.6481 53.4353C36.4856 53.5466 36.4048 53.7141 36.4048 53.9417C36.4048 54.2656 36.5903 54.4281 36.9603 54.4281C37.2255 54.4281 37.438 54.3519 37.5975 54.1985C37.7561 54.045 37.8359 53.8414 37.8359 53.5867V53.2377H37.8349Z" fill="white"/>
    <path d="M42.376 53.022V50.9712H43.442V53.022L44.9369 50.9712H46.1197L44.5729 52.996L46.2663 55.1942H45.0416L43.442 53.0521V55.1942H42.376V53.0521L40.7764 55.1942H39.5518L41.2451 52.996L39.6974 50.9712H40.8811L42.376 53.022Z" fill="white"/>
    <path d="M48.7684 55.2695C48.0922 55.2695 47.5637 55.0819 47.1827 54.7059C46.8018 54.3308 46.6123 53.8003 46.6123 53.1123C46.6123 52.4043 46.7878 51.8578 47.1398 51.4706C47.4919 51.0835 47.9775 50.891 48.5988 50.891C49.1932 50.891 49.6549 51.0615 49.986 51.4014C50.3151 51.7414 50.4806 52.2108 50.4806 52.8095V53.3691H47.7731C47.7851 53.696 47.8818 53.9517 48.0613 54.1362C48.2428 54.3208 48.4961 54.412 48.8212 54.412C49.0745 54.412 49.3129 54.386 49.5382 54.3328C49.7646 54.2797 50 54.1954 50.2453 54.0791V54.9706C50.0448 55.0719 49.8304 55.1471 49.6021 55.1963C49.3737 55.2454 49.0955 55.2695 48.7684 55.2695ZM48.6068 51.7113C48.3635 51.7113 48.173 51.7885 48.0364 51.943C47.8978 52.0974 47.819 52.3181 47.799 52.6019H49.4076C49.4016 52.3181 49.3278 52.0974 49.1852 51.943C49.0426 51.7896 48.8491 51.7113 48.6068 51.7113Z" fill="white"/>
    <path d="M52.5589 50.9712V52.5958H54.1585V50.9712H55.3044V55.1942H54.1585V53.4533H52.5589V55.1942H51.4131V50.9712H52.5589Z" fill="white"/>
    <path d="M60.8105 55.2694C60.3179 55.2694 59.9309 55.0889 59.6507 54.7299H59.5899C59.6298 55.0829 59.6507 55.2865 59.6507 55.3406V57.0525H58.5049V50.9712H59.4363L59.5979 51.5188H59.6507C59.919 51.1016 60.3159 50.892 60.8414 50.892C61.3361 50.892 61.725 51.0845 62.0052 51.4696C62.2855 51.8557 62.4261 52.3902 62.4261 53.0752C62.4261 53.5265 62.3613 53.9176 62.2286 54.2505C62.098 54.5825 61.9115 54.8362 61.6672 55.0097C61.4228 55.1832 61.1396 55.2694 60.8105 55.2694ZM60.4735 51.8136C60.1902 51.8136 59.9838 51.9018 59.8532 52.0763C59.7235 52.2518 59.6557 52.5407 59.6507 52.9428V53.0682C59.6507 53.5205 59.7175 53.8454 59.8522 54.0429C59.9858 54.2385 60.1972 54.3378 60.4884 54.3378C61.002 54.3378 61.2583 53.9116 61.2583 53.0611C61.2583 52.646 61.1945 52.3331 61.0688 52.1255C60.9412 51.9179 60.7437 51.8136 60.4735 51.8136Z" fill="white"/>
    <path d="M65.2723 55.2695C64.5961 55.2695 64.0686 55.0819 63.6876 54.7059C63.3067 54.3308 63.1172 53.8003 63.1172 53.1123C63.1172 52.4043 63.2937 51.8578 63.6437 51.4706C63.9968 51.0835 64.4834 50.891 65.1037 50.891C65.6971 50.891 66.1598 51.0615 66.4899 51.4014C66.821 51.7414 66.9865 52.2108 66.9865 52.8095V53.3691H64.277C64.291 53.696 64.3857 53.9517 64.5672 54.1362C64.7467 54.3208 65 54.412 65.3251 54.412C65.5784 54.412 65.8177 54.386 66.0441 54.3328C66.2685 54.2797 66.5039 54.1954 66.7492 54.0791V54.9706C66.5487 55.0719 66.3353 55.1471 66.1069 55.1963C65.8786 55.2454 65.6013 55.2695 65.2723 55.2695ZM65.1117 51.7113C64.8694 51.7113 64.6779 51.7885 64.5403 51.943C64.4026 52.0974 64.3239 52.3181 64.3049 52.6019H65.9115C65.9065 52.3181 65.8337 52.0974 65.6891 51.943C65.5475 51.7896 65.354 51.7113 65.1117 51.7113Z" fill="white"/>
    <path d="M68.9611 52.5959C69.3939 52.5959 69.7011 52.5608 69.8826 52.4906C70.0651 52.4204 70.1548 52.307 70.1548 52.1536C70.1548 52.0172 70.089 51.9159 69.9564 51.8477C69.8238 51.7795 69.6034 51.7454 69.2992 51.7454C69.1067 51.7454 68.8873 51.7685 68.644 51.8166C68.3997 51.8648 68.1773 51.93 67.9779 52.0132L67.6388 51.2079C67.937 51.0946 68.2262 51.0133 68.5064 50.9642C68.7866 50.9151 69.0998 50.891 69.4458 50.891C69.9674 50.891 70.3882 50.9923 70.7043 51.1939C71.0195 51.3944 71.178 51.6682 71.178 52.0132C71.178 52.4896 70.8978 52.7984 70.3393 52.9418V52.9799C70.6834 53.0652 70.9277 53.1865 71.0733 53.344C71.2199 53.5014 71.2937 53.707 71.2937 53.9617C71.2937 54.2185 71.2109 54.4461 71.0454 54.6457C70.8798 54.8453 70.6415 54.9987 70.3284 55.106C70.0152 55.2143 69.6463 55.2685 69.2244 55.2685C68.5233 55.2685 67.9848 55.1812 67.6099 55.0077V54.056C67.8243 54.1573 68.0606 54.2365 68.3169 54.2937C68.5742 54.3519 68.8225 54.3809 69.0629 54.3809C69.4358 54.3809 69.7151 54.3388 69.9006 54.2546C70.086 54.1693 70.1788 54.05 70.1788 53.8936C70.1788 53.7221 70.0801 53.5957 69.8846 53.5145C69.6901 53.4322 69.39 53.3911 68.9841 53.3911H68.5413V52.5948H68.9611V52.5959Z" fill="white"/>
    <path d="M71.5869 50.9712H72.8415L73.6343 53.347C73.7021 53.5536 73.748 53.7972 73.7729 54.079H73.7958C73.8228 53.8193 73.8776 53.5756 73.9574 53.347L74.7342 50.9712H75.9619L74.1858 55.7348C74.0232 56.174 73.7908 56.505 73.4897 56.7236C73.1885 56.9422 72.8355 57.0525 72.4316 57.0525C72.2331 57.0525 72.0397 57.0315 71.8492 56.9883V56.0747C71.9878 56.1068 72.1374 56.1239 72.3 56.1239C72.5024 56.1239 72.6799 56.0607 72.8305 55.9363C72.9821 55.812 73.1007 55.6224 73.1855 55.3717L73.2523 55.1641L71.5869 50.9712Z" fill="white"/>
    <path d="M80.3234 55.1942H79.1775V51.8357H78.1215C78.0417 52.7793 77.9439 53.4854 77.8293 53.9487C77.7146 54.414 77.56 54.75 77.3695 54.9576C77.1771 55.1651 76.9267 55.2694 76.6156 55.2694C76.3503 55.2694 76.1329 55.2293 75.9624 55.1491V54.2275C76.0851 54.2776 76.2077 54.3027 76.3304 54.3027C76.474 54.3027 76.5927 54.1984 76.6894 53.9928C76.7851 53.7862 76.8719 53.4412 76.9487 52.9599C77.0245 52.4775 77.0913 51.8136 77.1451 50.9712H80.3234V55.1942Z" fill="white"/>
    <path d="M82.6712 52.6028H83.478C84.1242 52.6028 84.6029 52.7071 84.9131 52.9127C85.2232 53.1193 85.3788 53.4322 85.3788 53.8504C85.3788 54.7469 84.7605 55.1952 83.5239 55.1952H81.5254V50.9722H82.6712V52.6028ZM84.2339 53.8644C84.2339 53.7009 84.1691 53.5826 84.0395 53.5094C83.9088 53.4362 83.7143 53.4001 83.4571 53.4001H82.6722V54.3969H83.472C83.9796 54.3969 84.2339 54.2194 84.2339 53.8644Z" fill="white"/>
    <path d="M89.7205 50.9712V51.8357H88.3463V55.1942H87.1995V51.8357H85.8232V50.9712H89.7205Z" fill="white"/>
    <path d="M93.168 55.1943L92.9476 54.6207H92.9167C92.7242 54.8644 92.5258 55.0338 92.3214 55.1291C92.1179 55.2234 91.8507 55.2705 91.5236 55.2705C91.1207 55.2705 90.8025 55.1552 90.5712 54.9225C90.3398 54.6919 90.2231 54.3609 90.2231 53.9337C90.2231 53.4854 90.3787 53.1555 90.6919 52.9419C91.004 52.7293 91.4727 52.6119 92.102 52.5889L92.83 52.5668V52.3813C92.83 51.9531 92.6116 51.7384 92.1758 51.7384C91.8407 51.7384 91.4468 51.8407 90.993 52.0443L90.6131 51.2671C91.0957 51.0124 91.6323 50.885 92.2206 50.885C92.7841 50.885 93.2149 51.0084 93.5161 51.2551C93.8172 51.5018 93.9668 51.8768 93.9668 52.3813V55.1953H93.168V55.1943ZM92.831 53.2377L92.3872 53.2538C92.0541 53.2638 91.8068 53.324 91.6442 53.4353C91.4817 53.5466 91.3999 53.7141 91.3999 53.9417C91.3999 54.2656 91.5854 54.4281 91.9564 54.4281C92.2226 54.4281 92.4341 54.3519 92.5936 54.1985C92.7532 54.045 92.832 53.8414 92.832 53.5867V53.2377H92.831Z" fill="white"/>
    <path d="M98.6223 50.9712V51.8357H97.2481V55.1942H96.1023V51.8357H94.7251V50.9712H98.6223Z" fill="white"/>
    <path d="M124.004 40.0652C119.688 40.0652 116.258 37.9552 116.258 31.1809V19.4976C116.258 12.7233 119.687 10.6133 124.004 10.6133C128.401 10.6133 131.588 12.7223 131.669 19.7403H126.304C126.264 16.5763 125.739 15.5213 124.004 15.5213C122.593 15.5213 121.584 16.1701 121.584 19.6179V31.0174C121.584 34.4653 122.633 35.1552 123.964 35.1552C125.537 35.1552 126.264 34.2627 126.304 30.8951H131.669C131.547 37.4287 128.643 40.0652 124.004 40.0652Z" fill="#EB0606"/>
    <path d="M153.692 39.7807L152.724 35.1154H146.956L146.027 39.7807H140.824L147.479 10.8973H152.158L158.936 39.7807H153.692ZM150.344 23.5534L149.78 20.3894L149.256 23.5534C149.256 23.5534 147.844 30.7339 147.804 30.7339H151.838L150.344 23.5534Z" fill="#EB0606"/>
    <path d="M179.429 39.7807L175.838 28.2598H174.306V39.7807H169.061V10.8973H177.21C182.373 10.8973 184.471 13.9801 184.471 19.0917V19.7817C184.471 24.0819 182.938 26.1107 180.679 27.1647L184.954 39.7807H179.429ZM179.066 19.538C179.066 17.0228 178.339 15.8063 176.364 15.8063H174.307V23.6758H176.364C178.179 23.6758 179.066 22.4182 179.066 19.9441V19.538Z" fill="#EB0606"/>
    <path d="M121.881 59.8386L119.84 53.29H118.968V59.8386H115.987V43.4188H120.621C123.555 43.4188 124.748 45.1718 124.748 48.0771V48.4692C124.748 50.9132 123.877 52.0665 122.593 52.6662L125.024 59.8376H121.881V59.8386ZM121.675 48.3308C121.675 46.9007 121.262 46.2098 120.138 46.2098H118.968V50.6835H120.138C121.17 50.6835 121.675 49.9685 121.675 48.5615V48.3308Z" fill="#EB0606"/>
    <path d="M126.377 59.8386V43.4188H133.945V46.2098H129.381V50.1761H133.234V52.943H129.381V57.0477H133.945V59.8376H126.377V59.8386Z" fill="#EB0606"/>
    <path d="M138.44 46.2098V50.3375H142.271V53.1275H138.44V59.8376H135.437V43.4188H142.958V46.2098H138.44Z" fill="#EB0606"/>
    <path d="M144.542 59.8386V43.4188H147.546V59.8386H144.542Z" fill="#EB0606"/>
    <path d="M156.514 59.8386L153.074 51.4678L152.548 49.9916L152.616 51.5821V59.8376H149.795V43.4188H152.295L155.735 51.7897L156.239 53.289L156.194 51.6513V43.4188H158.992V59.8386H156.514Z" fill="#EB0606"/>
    <path d="M161.24 59.8386V43.4188H164.245V59.8386H161.24Z" fill="#EB0606"/>
    <path d="M170.208 60C167.41 60 165.897 58.4546 165.805 55.2956H168.717C168.786 56.6565 169.199 57.2101 170.162 57.2101C171.239 57.2101 171.652 56.5412 171.652 55.2495C171.652 54.4883 171.538 53.9809 171.216 53.6118C170.987 53.3581 170.643 53.1736 170.023 53.0121L169.427 52.8506C168.098 52.4816 167.41 52.1135 166.813 51.2832C166.171 50.4297 165.987 49.2313 165.987 47.7321C165.987 44.7806 167.524 43.2583 170.276 43.2583C172.982 43.2583 174.334 44.573 174.495 47.7782H171.56C171.491 46.4865 171.193 45.9791 170.276 45.9791C169.359 45.9791 168.968 46.5326 168.968 47.709C168.968 48.3318 169.037 48.8623 169.243 49.1621C169.472 49.5081 169.817 49.6455 170.481 49.831L171.033 49.9925C172.362 50.3846 173.073 50.7075 173.6 51.2842C174.357 52.0915 174.61 53.3832 174.61 55.1121C174.611 58.6391 172.959 60 170.208 60Z" fill="#EB0606"/>
    <path d="M181.996 59.8386V52.966H179.244V59.8386H176.239V43.4188H179.244V50.13H181.996V43.4188H185V59.8386H181.996Z" fill="#EB0606"/>
</svg>
