<?xml version="1.0" encoding="utf-8"?>
<!-- Generator: Adobe Illustrator 16.2.0, SVG Export Plug-In . SVG Version: 6.00 Build 0)  -->
<!DOCTYPE svg PUBLIC "-//W3C//DTD SVG 1.1//EN" "http://www.w3.org/Graphics/SVG/1.1/DTD/svg11.dtd">
<svg version="1.1" id="Layer_1" xmlns="http://www.w3.org/2000/svg" xmlns:xlink="http://www.w3.org/1999/xlink" x="0px" y="0px"
	 width="93.654px" height="55.276px" viewBox="0 0 93.654 55.276" enable-background="new 0 0 93.654 55.276" xml:space="preserve">
<g>
	<rect x="0" y="41.104" fill="#FFFFFF" width="93.653" height="14.173"/>
	<g>
		<g>
			<g>
				<path fill-rule="evenodd" clip-rule="evenodd" fill="#FFFFFF" d="M14.628,8.584l2.938-1.118l2.936-0.915L23.387,22.2l1.66-8.55
					l1.663-8.543l2.769-0.471l2.77-0.395v28.371l-3.996-0.577V15.764l-2.58,15.768l-4.266-0.983L18.62,15.764v6.975v6.994
					l-1.995-0.686l-1.997-0.775c0-3.466,0-5.834,0-9.297C14.628,15.51,14.628,12.047,14.628,8.584L14.628,8.584z M35.534,3.885
					l1.995-0.18l1.998-0.125v14.845v14.847l-1.998-0.136l-1.995-0.161v-16.35V3.885L35.534,3.885z M44.496,18.188l-1.309-7.361
					l-1.306-7.359l2.075-0.051l2.084-0.014l1.439,11.5l0.639-5.729l0.639-5.74l2.096,0.06l2.098,0.109l-2.447,14.585l1.522,7.507
					l1.53,7.507l-2.115,0.123l-2.113,0.07l-1.848-11.61l-0.722,5.831l-0.718,5.835l-2.084-0.005l-2.075-0.063L44.496,18.188
					L44.496,18.188z M55.67,7.719c0-0.021,0-0.037,0-0.055c0-0.174,0.013-0.404,0.036-0.688c0.021-0.286,0.079-0.603,0.196-0.927
					c0.172-0.47,0.511-0.898,0.992-1.289c0.48-0.392,1.27-0.734,2.334-0.587l2.716,0.378c1.041,0.143,1.823,0.192,2.317,0.573
					c0.491,0.381,0.829,0.805,1.006,1.274c0.115,0.312,0.178,0.616,0.2,0.913C65.492,7.606,65.5,7.842,65.5,8.018
					c0,0.014,0,0.027,0,0.035c0,0.01,0,0.027,0,0.041V29c0,0.015,0,0.031,0,0.037c0,0.01,0,0.021,0,0.043c0,0.154,0,0.318,0,0.494
					c0,0.17-0.035,0.353-0.066,0.547c-0.078,0.535-0.331,1.033-0.787,1.484c-0.457,0.449-1.373,0.508-2.702,0.697l-2.716,0.385
					c-0.067-0.018-0.131-0.025-0.187-0.025c-0.054,0-0.108,0.002-0.149,0c-0.806-0.016-1.547-0.201-2.216-0.547
					c-0.669-0.345-1.007-1.258-1.007-2.736V7.719L55.67,7.719z M59.663,29.428c0,0.016,0,0.031,0,0.039c0,0-0.003,0.023,0,0.039
					c0.019,0.174,0.112,0.33,0.268,0.467c0.157,0.141,0.382,0.212,0.675,0.212c0.266,0,0.484-0.069,0.65-0.198
					c0.166-0.127,0.254-0.316,0.254-0.559V7.385c0-0.211-0.076-0.375-0.218-0.496c-0.147-0.12-0.31-0.198-0.487-0.235
					c-0.021-0.018-0.049-0.026-0.084-0.026s-0.074,0-0.115,0c-0.25,0-0.463,0.072-0.638,0.211c-0.181,0.139-0.286,0.293-0.305,0.469
					c-0.003,0.014,0,0.028,0,0.037s0,0.025,0,0.041V29.428L59.663,29.428z M68.555,5.797l1.996,0.507l2,0.552l2.48,10.629v-4.9
					V7.689l2,0.74l1.997,0.885v9.113v9.117l-1.997,0.873l-2,0.756l-2.48-8.8v4.813v4.814l-2,0.546l-1.996,0.497V17.582V5.797
					L68.555,5.797z"/>
			</g>
			<g>
				<path fill-rule="evenodd" clip-rule="evenodd" fill="#FFFFFF" d="M46.828,35.146c-24.92,0-45.12-7.486-45.12-16.722
					c0-9.231,20.2-16.722,45.12-16.722c24.921,0,45.119,7.49,45.119,16.722C91.947,27.66,71.749,35.146,46.828,35.146L46.828,35.146
					z M46.828,0C20.968,0,0,8.252,0,18.425c0,10.177,20.968,18.427,46.828,18.427c25.861,0,46.826-8.25,46.826-18.427
					C93.654,8.252,72.689,0,46.828,0L46.828,0z"/>
			</g>
		</g>
	</g>
	<g>
		<text transform="matrix(1 0 0 1 3.5264 50.7451)" fill="#58595B" font-family="'Plumb-Regular'" font-size="7.3423">Коли важливий результат</text>
	</g>
</g>
</svg>
