<svg width="300" height="115" viewBox="0 0 300 115" fill="none" xmlns="http://www.w3.org/2000/svg">
    <path d="M150.012 109.679C70.1641 109.679 5.4339 86.3107 5.4339 57.5C5.4339 28.6835 70.1641 5.29453 150.012 5.29742C229.845 5.29742 294.569 28.6864 294.569 57.5C294.569 86.3107 229.845 109.679 150.012 109.679ZM150.012 0C67.1684 0 0 25.7155 0 57.5C0 89.2354 67.1684 115 150.012 115C232.829 115 300 89.2325 300 57.5C300 25.7155 232.829 0 150.012 0Z" fill="#152B75"/>
    <path d="M47.0058 27.1784L56.4609 23.6959L65.8612 20.8463L75.1084 69.6994L80.3834 43.0071L85.7075 16.3379L94.5936 14.864L103.485 13.6357V102.195L90.6648 100.389V49.605L82.4114 98.8077L68.7703 95.7559L59.8264 49.6021V71.364V93.1982L53.4103 91.0509L47 88.6319C47 77.8319 47 70.4392 47 59.6161C47.0058 48.8102 47.0058 38.0044 47.0058 27.1784ZM114.024 12.5259L120.428 11.9682L126.798 11.5722V57.9225V104.232L120.428 103.842L114.024 103.331V52.2898V12.5259ZM142.693 57.1624L138.501 34.204L134.321 11.2139L140.983 11.0578L147.636 11L152.272 46.9144L154.312 29.0309L156.331 11.1329L163.056 11.3208L169.781 11.6445L161.958 57.1624L166.872 80.6092L171.754 104.042L164.966 104.409L158.168 104.625L152.266 68.3757L149.993 86.6118L147.63 104.807L140.977 104.764L134.312 104.576L142.693 57.1624ZM178.488 24.4935C178.488 24.4184 178.488 24.3664 178.488 24.3346C178.488 23.7913 178.523 23.063 178.607 22.17C178.696 21.2769 178.849 20.3117 179.245 19.2741C179.82 17.8234 180.918 16.4593 182.429 15.2426C183.986 14.023 186.525 12.9652 189.905 13.4334L198.598 14.601C201.98 15.0374 204.473 15.2108 206.031 16.3928C207.645 17.5748 208.734 18.91 209.263 20.3666C209.636 21.3579 209.806 22.2856 209.896 23.2162C209.977 24.1525 210.037 24.8808 210.037 25.4155C210.037 25.4646 210.037 25.5224 210.037 25.5224C210.037 25.5802 210.037 25.6091 210.037 25.6553V90.9093C210.037 90.9642 210.037 91.022 210.037 91.022C210.037 91.0538 210.037 91.0971 210.037 91.1636C210.037 91.6462 210.037 92.1549 210.037 92.6982C210.037 93.2415 209.878 93.8138 209.783 94.4091C209.529 96.0969 208.734 97.6373 207.296 99.0447C205.825 100.449 202.859 100.637 198.598 101.224L189.905 102.443C189.723 102.377 189.483 102.334 189.327 102.334C189.134 102.334 189.001 102.334 188.833 102.334C186.228 102.284 183.873 101.724 181.712 100.64C179.569 99.5534 178.491 96.6951 178.491 92.0797V24.4935H178.488ZM191.312 92.2531C191.312 92.2936 191.312 92.3485 191.312 92.3774C191.312 92.415 191.289 92.4352 191.312 92.4959C191.373 93.0334 191.656 93.5161 192.19 93.964C192.649 94.3658 193.372 94.6085 194.308 94.6085C195.166 94.6085 195.882 94.3947 196.416 94.0103C196.939 93.5999 197.199 93.0074 197.199 92.256V23.4589C197.199 22.7913 196.968 22.2653 196.5 21.9012C196.067 21.537 195.535 21.274 194.978 21.1845C194.894 21.1209 194.77 21.0949 194.663 21.0949C194.596 21.0949 194.455 21.0949 194.308 21.0949C193.539 21.0949 192.863 21.3203 192.242 21.7307C191.696 22.1757 191.37 22.6526 191.312 23.2046C191.289 23.2653 191.312 23.3115 191.312 23.3115C191.312 23.3491 191.312 23.404 191.312 23.4618V92.2531ZM219.793 18.4996L226.218 20.0834L232.611 21.8029L240.549 54.9689V39.6691V24.3895L246.96 26.6986L253.37 29.4644V57.9283V86.3633L246.96 89.0915L240.549 91.4497L232.611 63.9858V79.0226V94.0276L226.218 95.7587L219.793 97.2991V55.2839V18.4996Z" fill="#152B75"/>
</svg>
